<?xml version="1.0" encoding="iso-8859-1"?>
<!-- Generator: Adobe Illustrator 19.0.0, SVG Export Plug-In . SVG Version: 6.00 Build 0)  -->
<svg version="1.1" id="Capa_1" xmlns="http://www.w3.org/2000/svg" xmlns:xlink="http://www.w3.org/1999/xlink" x="0px" y="0px"
	 viewBox="0 0 512 512" style="enable-background:new 0 0 512 512;" xml:space="preserve">
<g>
	<g>
		<path d="M420.964,183.81C422.509,91.353,347.746,16,256,16C164.215,16,89.492,91.394,91.036,183.81
			C37.066,211.077,0,266.814,0,331c0,90.981,74.468,165,166,165c33.181,0,64.099-9.854,90-26.775
			C281.901,486.146,312.819,496,346,496c91.532,0,166-74.019,166-165C512,266.814,474.934,211.077,420.964,183.81z M256,46
			c71.443,0,130.091,55.785,134.698,126.083C376.471,168.124,361.481,166,346,166c-33.181,0-64.099,9.854-90,26.776
			C230.099,175.854,199.181,166,166,166c-15.481,0-30.471,2.124-44.698,6.083C125.909,101.785,184.557,46,256,46z M256,230.469
			c22.398,20.073,38.07,47.501,43.184,78.448C285.619,313.509,271.095,316,256,316c-15.095,0-29.619-2.491-43.184-7.083
			C217.93,277.97,233.602,250.543,256,230.469z M184.823,295.661c-32.356-20.158-55.598-53.619-62.023-92.676
			C136.378,198.458,150.905,196,166,196c23.574,0,45.751,6.08,65.059,16.745C208.28,234.891,191.86,263.538,184.823,295.661z
			 M280.941,212.745C300.249,202.08,322.426,196,346,196c15.095,0,29.622,2.458,43.2,6.985
			c-6.425,39.057-29.667,72.518-62.023,92.676C320.14,263.538,303.72,234.891,280.941,212.745z M166,466
			c-74.99,0-136-60.561-136-135c0-48.528,25.933-91.151,64.76-114.948c10.61,48.85,42.909,89.705,86.279,111.916
			c-0.856,47.23,18.248,90.398,50.02,121.288C211.751,459.92,189.574,466,166,466z M256,431.53
			c-25.545-22.894-42.341-55.353-44.703-91.688C225.52,343.851,240.513,346,256,346s30.48-2.149,44.703-6.157
			C298.341,376.178,281.545,408.637,256,431.53z M346,466c-23.574,0-45.751-6.08-65.059-16.745
			c31.765-30.883,50.877-74.048,50.02-121.288c43.37-22.211,75.669-63.065,86.279-111.916C456.067,239.849,482,282.472,482,331
			C482,405.439,420.99,466,346,466z"/>
	</g>
</g>
<g>
</g>
<g>
</g>
<g>
</g>
<g>
</g>
<g>
</g>
<g>
</g>
<g>
</g>
<g>
</g>
<g>
</g>
<g>
</g>
<g>
</g>
<g>
</g>
<g>
</g>
<g>
</g>
<g>
</g>
</svg>
