<?xml version="1.0" encoding="iso-8859-1"?>
<!-- Generator: Adobe Illustrator 16.0.0, SVG Export Plug-In . SVG Version: 6.00 Build 0)  -->
<!DOCTYPE svg PUBLIC "-//W3C//DTD SVG 1.1//EN" "http://www.w3.org/Graphics/SVG/1.1/DTD/svg11.dtd">
<svg version="1.1" id="Capa_1" xmlns="http://www.w3.org/2000/svg" xmlns:xlink="http://www.w3.org/1999/xlink" x="0px" y="0px"
	 width="47px" height="47px" viewBox="0 0 47 47" style="enable-background:new 0 0 47 47;" xml:space="preserve">
<g>
	<g>
		<path d="M23.501,7.705c0.55,0,1-0.45,1-1V1c0-0.55-0.45-1-1-1s-1,0.45-1,1v5.704C22.501,7.254,22.951,7.705,23.501,7.705z"/>
		<path d="M23.501,39.295c-0.55,0-1,0.45-1,1V46c0,0.55,0.45,1,1,1s1-0.45,1-1v-5.704C24.501,39.746,24.051,39.295,23.501,39.295z"
			/>
		<path d="M8.299,6.884c-0.389-0.389-1.025-0.389-1.414,0c-0.389,0.389-0.389,1.025,0,1.414l4.033,4.032
			c0.389,0.389,1.025,0.389,1.414,0.001c0.388-0.389,0.388-1.025-0.001-1.414L8.299,6.884z"/>
		<path d="M36.084,34.67c-0.389-0.389-1.025-0.389-1.414-0.001c-0.388,0.39-0.388,1.024,0.001,1.414l4.032,4.033
			c0.389,0.389,1.025,0.389,1.414,0c0.389-0.39,0.389-1.025,0-1.414L36.084,34.67z"/>
		<path d="M7.705,23.5c0-0.55-0.45-1-1-1H1c-0.55,0-1,0.45-1,1s0.45,1,1,1h5.705C7.255,24.5,7.705,24.05,7.705,23.5z"/>
		<path d="M46,22.5h-5.705c-0.55,0-1,0.45-1,1s0.45,1,1,1H46c0.55,0,1-0.45,1-1S46.55,22.5,46,22.5z"/>
		<path d="M10.918,34.67l-4.033,4.032c-0.389,0.389-0.389,1.024,0,1.414c0.389,0.389,1.025,0.389,1.414,0l4.032-4.033
			c0.389-0.39,0.389-1.024,0.001-1.414C11.943,34.282,11.307,34.282,10.918,34.67z"/>
		<path d="M36.082,12.331l4.035-4.032c0.389-0.389,0.389-1.025,0-1.414c-0.389-0.389-1.025-0.389-1.414,0l-4.034,4.033
			c-0.39,0.389-0.39,1.025-0.001,1.414C35.057,12.719,35.693,12.719,36.082,12.331z"/>
		<path d="M30.586,23.163c-0.578-0.414-1.234-0.748-1.975-0.998c-0.737-0.247-1.495-0.461-2.272-0.638
			c-0.623-0.145-1.231-0.276-1.838-0.404v-4.171c0.447,0.091,0.86,0.229,1.233,0.425c0.703,0.36,1.093,1.059,1.166,2.085h5.072
			c-0.1-1.204-0.406-2.199-0.918-2.988c-0.516-0.788-1.16-1.421-1.938-1.899c-0.777-0.474-1.658-0.813-2.648-1.014
			c-0.643-0.131-1.302-0.203-1.969-0.248V11h-2V13.3c-0.736,0.039-1.464,0.108-2.176,0.24c-1.002,0.189-1.904,0.516-2.705,0.979
			c-0.801,0.463-1.447,1.103-1.936,1.915c-0.486,0.817-0.73,1.838-0.73,3.064c0,0.851,0.174,1.572,0.525,2.158
			c0.35,0.592,0.813,1.08,1.389,1.47c0.578,0.388,1.234,0.699,1.975,0.938c0.738,0.242,1.496,0.441,2.273,0.621
			c0.487,0.103,0.948,0.203,1.385,0.304v5.061c-0.117-0.022-0.236-0.036-0.352-0.065c-0.49-0.127-0.92-0.319-1.297-0.582
			c-0.377-0.262-0.682-0.604-0.92-1.016c-0.24-0.414-0.359-0.91-0.359-1.482H14.5c0.051,1.273,0.346,2.354,0.884,3.229
			c0.538,0.877,1.226,1.588,2.067,2.125c0.838,0.539,1.797,0.922,2.873,1.145c0.713,0.149,1.441,0.231,2.176,0.283V36h2v-2.304
			c0.805-0.045,1.6-0.129,2.381-0.297c1.064-0.222,2.014-0.599,2.84-1.125c0.824-0.525,1.494-1.223,2.008-2.084
			c0.515-0.867,0.771-1.938,0.771-3.215c0-0.902-0.176-1.658-0.527-2.272C31.622,24.089,31.161,23.574,30.586,23.163z
			 M22.185,20.532c-0.563-0.189-1.021-0.435-1.369-0.733c-0.353-0.3-0.525-0.689-0.525-1.166c0-0.401,0.098-0.719,0.3-0.955
			c0.198-0.24,0.442-0.42,0.733-0.545c0.287-0.126,0.605-0.208,0.956-0.245c0.08-0.008,0.145-0.007,0.222-0.013v3.751
			C22.397,20.593,22.283,20.563,22.185,20.532z M26.827,28.875c-0.228,0.312-0.509,0.562-0.849,0.748
			c-0.336,0.189-0.711,0.327-1.125,0.416c-0.119,0.025-0.235,0.039-0.354,0.059v-4.595c0.395,0.121,0.758,0.248,1.066,0.384
			c0.513,0.227,0.908,0.482,1.184,0.771c0.275,0.287,0.412,0.633,0.412,1.033C27.163,28.165,27.055,28.561,26.827,28.875z"/>
	</g>
</g>
<g>
</g>
<g>
</g>
<g>
</g>
<g>
</g>
<g>
</g>
<g>
</g>
<g>
</g>
<g>
</g>
<g>
</g>
<g>
</g>
<g>
</g>
<g>
</g>
<g>
</g>
<g>
</g>
<g>
</g>
</svg>
