<?xml version="1.0" encoding="iso-8859-1"?>
<!-- Generator: Adobe Illustrator 19.1.0, SVG Export Plug-In . SVG Version: 6.00 Build 0)  -->
<svg version="1.1" id="Capa_1" xmlns="http://www.w3.org/2000/svg" xmlns:xlink="http://www.w3.org/1999/xlink" x="0px" y="0px"
	 viewBox="0 0 486.025 486.025" style="enable-background:new 0 0 486.025 486.025;" xml:space="preserve">
<g>
	<g>
		<path d="M420.725,85.413c-42.1-42.1-98.1-65.3-157.6-65.3c-60.6,0-117.3,23.9-159.6,67.3c-4.6,4.7-4.5,12.3,0.2,17
			c4.7,4.6,12.3,4.5,17-0.2c37.8-38.7,88.3-60,142.4-60c109.7-0.1,198.9,89.1,198.9,198.8s-89.2,198.9-198.9,198.9
			s-198.8-89.2-198.8-198.9v-2.5l19.7,19.8c2.3,2.3,5.4,3.5,8.5,3.5s6.1-1.2,8.5-3.5c4.7-4.7,4.7-12.3,0-17l-40.2-40.3
			c-4.7-4.7-12.3-4.7-17,0l-40.3,40.3c-4.7,4.7-4.7,12.3,0,17s12.3,4.7,17,0l19.8-19.8v2.5c0,59.5,23.2,115.5,65.3,157.6
			s98.1,65.3,157.6,65.3s115.5-23.2,157.6-65.3c42-42.1,65.2-98.1,65.2-157.6S462.825,127.513,420.725,85.413z"/>
		<path d="M263.125,103.613c-6.6,0-12,5.4-12,12v29.1h-7.6c-30.3,0-55,24.7-55,55s24.7,55,55,55h39.2c17.1,0,31,13.9,31,31
			s-13.9,31-31,31h-70.5c-6.6,0-12,5.4-12,12s5.4,12,12,12h38.9v29.5c0,6.6,5.4,12,12,12s12-5.4,12-12v-29.5h8c0.1,0,0.2,0,0.3,0
			c30-0.4,54.3-24.9,54.3-55c0-30.3-24.7-55-55-55h-39.2c-17.1,0-31-13.9-31-31s13.9-31,31-31h69.2c6.6,0,12-5.4,12-12
			s-5.4-12-12-12h-37.6v-29.1C275.125,109.013,269.825,103.613,263.125,103.613z"/>
	</g>
</g>
<g>
</g>
<g>
</g>
<g>
</g>
<g>
</g>
<g>
</g>
<g>
</g>
<g>
</g>
<g>
</g>
<g>
</g>
<g>
</g>
<g>
</g>
<g>
</g>
<g>
</g>
<g>
</g>
<g>
</g>
</svg>
